<?xml version="1.0" standalone="no"?>
<svg viewBox="0 0 512 512" xmlns="http://www.w3.org/2000/svg">
<ellipse style="fill: rgba(37, 37, 37, 1); stroke:#ac4042; stroke-width: 10px;" cx="251" cy="264.3" rx="220" ry="220"/>
<g transform="matrix(0.058621, 0, 0, -0.069441, 99.929002, 427.772986)" fill="#ac4042" stroke="none" style="">
<path d="M2960 4947 c-49 -16 -133 -102 -148 -153 -7 -23 -12 -92 -12 -153 0
-105 1 -113 25 -136 13 -14 31 -25 40 -25 8 0 15 -2 15 -4 0 -3 -95 -140 -210
-305 -116 -166 -223 -327 -238 -358 l-27 -58 -3 -437 -3 -438 -615 0 -615 0
-24 -25 c-25 -24 -25 -27 -25 -190 l0 -165 -80 -160 -80 -160 0 -820 0 -820
90 -180 c50 -99 98 -184 109 -190 13 -7 241 -10 684 -10 662 0 664 0 691 21
27 21 28 21 69 3 30 -14 64 -19 122 -19 86 1 145 23 214 80 l31 27 46 -31 c88
-58 148 -75 264 -75 116 0 176 17 264 75 l46 31 31 -27 c18 -14 55 -38 83 -53
43 -22 64 -26 136 -27 78 0 90 3 148 34 94 51 152 132 167 231 3 25 -12 333
-35 685 l-40 640 40 282 41 281 -3 719 -3 718 -27 58 c-15 31 -122 192 -238
358 -115 165 -210 302 -210 305 0 2 7 4 15 4 9 0 27 11 40 25 24 23 25 31 25
136 0 137 -11 177 -67 239 -69 77 -88 80 -417 79 -174 -1 -294 -5 -316 -12z
m615 -172 c21 -20 25 -34 25 -80 l0 -55 -320 0 -320 0 0 55 c0 46 4 60 25 80
l24 25 271 0 271 0 24 -25z m153 -652 c137 -197 254 -373 261 -392 6 -19 11
-74 11 -122 l0 -89 -720 0 -720 0 0 89 c0 48 5 103 11 122 7 19 124 195 261
392 l250 357 198 0 198 0 250 -357z m272 -1243 l0 -480 -695 0 -695 0 -25 50
-25 49 0 431 0 430 720 0 720 0 0 -480z m-1600 -240 l0 -80 -55 0 c-46 0 -60
-4 -80 -25 -33 -32 -33 -78 0 -110 21 -22 33 -25 94 -25 l71 0 40 -80 40 -80
-670 0 -670 0 40 80 40 80 391 0 390 0 24 25 c16 15 25 36 25 55 0 19 -9 40
-25 55 l-24 25 -376 0 -375 0 0 80 0 80 560 0 560 0 0 -80z m1584 -427 c-2
-16 -18 -122 -34 -238 l-30 -210 41 -656 c39 -633 40 -658 24 -694 -29 -59
-78 -90 -145 -90 -47 0 -63 5 -94 29 -42 31 -66 78 -66 126 0 41 -39 80 -80
80 -38 0 -80 -39 -80 -75 0 -87 -114 -165 -240 -165 -126 0 -240 78 -240 165
0 36 -42 75 -80 75 -41 0 -80 -39 -80 -80 0 -99 -94 -175 -192 -156 -67 13
-67 16 -15 121 l47 95 0 821 c0 715 -2 824 -15 849 l-16 30 650 0 651 0 -6
-27z m-2185 -214 c37 -98 73 -219 98 -331 27 -125 24 -378 -6 -518 -27 -125
-81 -268 -154 -405 l-54 -100 -281 -3 -282 -2 0 720 0 720 324 0 324 0 31 -81z
m320 0 c37 -98 73 -219 98 -331 27 -125 24 -378 -6 -518 -27 -125 -81 -268
-154 -405 l-54 -100 -66 -3 c-37 -2 -67 -1 -67 1 0 2 24 55 54 118 113 238
150 404 150 664 0 208 -16 300 -89 523 l-43 132 73 0 73 0 31 -81z m441 -639
l0 -720 -185 0 c-102 0 -185 2 -185 4 0 1 24 54 54 117 113 238 150 404 150
664 0 208 -16 300 -89 523 l-43 132 149 0 149 0 0 -720z m-90 -960 l-40 -80
-590 0 -590 0 -40 80 -40 80 670 0 670 0 -40 -80z"/>
</g>
</svg>
